<?xml version="1.0" standalone="no"?>
<!DOCTYPE svg PUBLIC "-//W3C//DTD SVG 20010904//EN"
 "http://www.w3.org/TR/2001/REC-SVG-20010904/DTD/svg10.dtd">
<svg version="1.0" xmlns="http://www.w3.org/2000/svg"
 width="1050.000000pt" height="600.000000pt" viewBox="0 0 1050.000000 600.000000"
 preserveAspectRatio="xMidYMid meet">

<g transform="translate(0.000000,600.000000) scale(0.100000,-0.100000)"
fill="#000000" stroke="none">
<path d="M4187 3813 c-4 -3 -7 -33 -7 -65 0 -45 3 -58 15 -58 11 0 15 11 15
43 l0 42 26 -42 c38 -64 54 -57 54 22 0 37 -4 65 -10 65 -5 0 -10 -21 -10 -47
l0 -47 -30 47 c-29 46 -40 54 -53 40z"/>
<path d="M4340 3800 c-41 -41 -14 -110 43 -110 29 0 57 32 57 67 0 28 -33 63
-60 63 -11 0 -29 -9 -40 -20z m66 -25 c4 -8 3 -27 0 -41 -5 -19 -12 -25 -29
-22 -22 3 -34 35 -23 64 7 19 45 18 52 -1z"/>
<path d="M4592 3812 c-8 -2 -12 -25 -12 -63 l0 -59 33 0 c79 0 94 109 17 122
-14 2 -31 3 -38 0z m56 -58 c2 -22 -2 -33 -13 -38 -25 -9 -35 2 -35 40 0 31 3
35 23 32 17 -2 23 -11 25 -34z"/>
<path d="M4716 3813 c-9 -10 -7 -123 3 -123 13 0 21 27 21 75 0 42 -10 62 -24
48z"/>
<path d="M4780 3800 c-24 -24 -26 -72 -4 -94 19 -19 74 -21 74 -3 0 7 -12 13
-27 12 -25 0 -28 3 -28 35 0 31 3 35 28 38 30 4 36 17 11 26 -25 9 -33 7 -54
-14z"/>
<path d="M4938 3809 c-26 -14 -22 -46 7 -65 14 -9 25 -21 25 -26 0 -6 -11 -8
-25 -6 -17 4 -25 1 -25 -8 0 -17 51 -19 68 -2 18 18 15 26 -20 59 l-32 29 27
0 c30 0 36 14 11 24 -19 7 -15 8 -36 -5z"/>
<path d="M5127 3814 c-12 -12 -8 -99 5 -112 7 -7 24 -12 38 -12 38 0 50 18 50
72 0 63 -16 62 -24 -3 -6 -40 -10 -50 -24 -47 -12 2 -18 15 -20 48 -3 46 -13
66 -25 54z"/>
<path d="M5262 3812 c-7 -2 -12 -27 -12 -63 l0 -59 31 0 c42 0 65 15 73 46 12
48 -43 93 -92 76z m64 -47 c7 -27 -10 -55 -32 -55 -10 0 -14 13 -14 40 0 33 3
40 20 40 13 0 22 -9 26 -25z"/>
<path d="M5386 3813 c-3 -3 -6 -33 -6 -65 0 -45 3 -58 15 -58 12 0 15 13 15
59 0 56 -9 79 -24 64z"/>
<path d="M5463 3810 c-29 -12 -40 -63 -19 -95 19 -29 66 -34 90 -9 24 24 20
80 -6 98 -25 18 -33 19 -65 6z m55 -58 c2 -22 -2 -34 -12 -38 -22 -8 -46 13
-46 41 0 28 9 37 35 33 15 -2 21 -12 23 -36z"/>
<path d="M4460 3750 c0 -47 3 -60 15 -60 10 0 15 10 15 28 l1 27 22 -27 c30
-37 56 -39 33 -3 -13 20 -14 29 -5 44 20 31 4 51 -41 51 l-40 0 0 -60z m60 25
c0 -8 -7 -15 -15 -15 -8 0 -15 7 -15 15 0 8 7 15 15 15 8 0 15 -7 15 -15z"/>
<path d="M5010 3800 c0 -5 7 -10 15 -10 11 0 15 -12 15 -50 0 -38 4 -50 15
-50 11 0 15 12 15 50 0 38 4 50 15 50 8 0 15 5 15 10 0 6 -20 10 -45 10 -25 0
-45 -4 -45 -10z"/>
<path d="M3120 3460 l0 -70 100 0 100 0 0 -305 0 -305 80 0 80 0 0 305 0 305
100 0 100 0 0 70 0 70 -280 0 -280 0 0 -70z"/>
<path d="M3861 3232 c-57 -163 -117 -332 -132 -374 l-28 -78 87 0 87 0 25 88
26 87 135 3 136 3 27 -91 28 -90 84 0 c46 0 84 3 84 6 0 5 -239 684 -255 727
-6 14 -21 17 -104 17 l-96 0 -104 -298z m248 25 c23 -75 44 -144 47 -152 5
-13 -9 -15 -90 -15 -53 0 -96 2 -96 4 0 2 9 32 19 67 11 35 32 104 46 152 15
49 28 87 29 85 2 -2 22 -65 45 -141z"/>
<path d="M4520 3155 l0 -375 230 0 230 0 0 65 0 64 -152 3 -153 3 0 305 0 305
-77 3 -78 3 0 -376z"/>
<path d="M5110 3155 l0 -375 215 0 215 0 0 65 0 64 -137 3 -138 3 -3 93 -3 92
131 0 130 0 0 65 0 64 -127 3 -128 3 0 80 0 80 138 3 138 3 -3 62 -3 62 -212
3 -213 2 0 -375z"/>
<path d="M5690 3155 l0 -375 71 0 70 0 -3 280 c-2 153 0 276 4 272 4 -4 76
-128 161 -277 l155 -270 101 -3 101 -3 0 376 0 375 -71 0 -71 0 4 -279 c1
-154 2 -278 0 -276 -2 2 -75 126 -162 277 l-158 273 -101 3 -101 3 0 -376z"/>
<path d="M6470 3460 l0 -70 100 0 100 0 0 -305 0 -305 80 0 80 0 0 305 0 305
100 0 100 0 0 70 0 70 -280 0 -280 0 0 -70z"/>
<path d="M7147 3523 c-4 -3 -7 -172 -7 -375 l0 -368 215 0 215 0 0 65 0 65
-135 0 -135 0 0 95 0 95 124 0 124 0 4 61 c1 33 1 63 -1 65 -2 2 -60 4 -128 4
l-124 0 3 83 3 82 133 3 132 3 0 64 0 65 -208 0 c-115 0 -212 -3 -215 -7z"/>
<path d="M7730 3155 l0 -375 133 0 c73 0 160 5 193 11 173 32 273 145 290 327
15 164 -53 303 -180 365 -68 33 -156 47 -313 47 l-123 0 0 -375z m343 221 c42
-17 83 -66 97 -114 5 -20 10 -71 10 -113 0 -63 -5 -85 -27 -130 -37 -72 -87
-100 -190 -107 l-73 -5 0 248 0 248 75 -6 c41 -4 90 -13 108 -21z"/>
<path d="M4802 2611 c-108 -37 -175 -133 -193 -273 -16 -130 14 -255 80 -331
76 -86 232 -120 367 -79 89 27 135 66 176 150 32 65 33 70 33 197 0 115 -3
136 -24 183 -31 69 -106 137 -174 157 -70 21 -199 19 -265 -4z m237 -128 c47
-34 73 -104 75 -196 1 -104 -16 -166 -60 -208 -31 -30 -41 -34 -102 -37 -87
-4 -127 17 -162 84 -21 41 -25 62 -25 139 0 135 36 211 111 235 43 14 134 4
163 -17z"/>
<path d="M6211 2608 c-5 -13 -58 -165 -119 -338 -61 -173 -113 -323 -117 -332
-6 -16 1 -18 74 -18 56 0 83 4 86 13 2 6 14 45 25 85 l22 72 128 0 127 0 23
-81 c13 -44 29 -83 35 -85 7 -3 44 -4 82 -2 l71 3 -69 195 c-38 107 -94 266
-125 353 l-56 157 -89 0 c-84 0 -90 -1 -98 -22z m143 -241 c21 -72 41 -138 43
-144 4 -10 -17 -13 -87 -13 -70 0 -91 3 -87 13 2 6 22 72 43 144 22 73 41 133
44 133 3 0 22 -60 44 -133z"/>
<path d="M2710 2270 l0 -350 75 0 75 0 0 350 0 350 -75 0 -75 0 0 -350z"/>
<path d="M3040 2270 l0 -350 66 0 65 0 -3 265 c-2 145 0 261 3 257 3 -4 72
-123 153 -264 l148 -258 94 0 94 0 0 350 0 350 -65 0 -65 0 -2 -256 -3 -257
-147 254 -147 254 -95 3 -96 3 0 -351z"/>
<path d="M3840 2615 c-1 -3 -1 -159 -1 -347 l-1 -343 67 -3 67 -3 -4 265 c-2
146 0 260 4 253 4 -6 72 -124 150 -262 l144 -250 97 -3 97 -3 0 351 0 350 -72
0 -71 0 6 -262 7 -262 -116 199 c-63 110 -132 228 -152 263 l-36 62 -93 0
c-51 0 -93 -2 -93 -5z"/>
<path d="M5442 2298 c61 -178 113 -334 117 -348 7 -24 11 -25 92 -28 l84 -2
114 337 c63 186 116 344 118 351 4 9 -14 12 -71 12 l-75 0 -65 -202 c-83 -261
-96 -306 -96 -336 0 -36 -10 -21 -21 30 -5 24 -42 148 -82 275 l-72 233 -76 0
-76 0 109 -322z"/>
<path d="M6670 2560 l0 -60 95 0 95 0 0 -290 0 -290 75 0 75 0 0 290 0 290 95
0 95 0 0 60 0 60 -265 0 -265 0 0 -60z"/>
<path d="M7310 2270 l0 -350 75 0 75 0 0 350 0 350 -75 0 -75 0 0 -350z"/>
<path d="M7550 2613 c0 -4 52 -162 116 -350 l117 -343 83 0 c77 0 83 2 90 23
3 12 55 167 115 343 60 177 109 324 109 328 0 3 -33 6 -74 6 l-74 0 -11 -32
c-93 -294 -140 -451 -146 -488 l-8 -45 -17 66 c-9 36 -47 163 -85 282 l-68
217 -74 0 c-40 0 -73 -3 -73 -7z"/>
<path d="M8270 2270 l0 -350 205 0 205 0 0 60 0 59 -127 3 -128 3 -3 88 -3 87
121 0 120 0 0 65 0 65 -120 0 -120 0 0 75 0 75 130 0 130 0 0 60 0 60 -205 0
-205 0 0 -350z"/>
</g>
</svg>
